# xmcd
#
# Track frame offsets:
#	150
#	15437
#	30985
#	43275
#	58242
#	74290
#	87227
#	97775
#	115747
#	131157
#	145265
#	160047
#
# Disc length: 2369 seconds
#
# Revision: 0
# Processed by: cddbd v1.4PL0 Copyright (c) Steve Scherf et al.
# Submitted via: dBpowerAMP V4.0
#
DISCID=99093f0c
DTITLE=Ty England - Ty England
DYEAR=1995
DGENRE=country
TTITLE0=Redneck Son
TTITLE1=Smoke In Her Eyes
TTITLE2=Should`ve Asked Her Faster
TTITLE3=Her Only Bad Habit Is Me
TTITLE4=Once You Learn
TTITLE5=You`ll Find Somebody New
TTITLE6=A Swing Like That
TTITLE7=New Faces In The Fields
TTITLE8=The Blues Ain`t News To Me
TTITLE9=It`s Lonesome Everywhere
TTITLE10=I`ve Been To Town
TTITLE11=Is That You
EXTD=
EXTT0=
EXTT1=
EXTT2=
EXTT3=
EXTT4=
EXTT5=
EXTT6=
EXTT7=
EXTT8=
EXTT9=
EXTT10=
EXTT11=
PLAYORDER=
